<?xml version="1.0" encoding="utf-8"?>
<svg version="1.1" xmlns:xlink="http://www.w3.org/1999/xlink" width="82px" height="40px" xmlns="http://www.w3.org/2000/svg">
  <defs>
    <filter x="273px" y="7px" width="82px" height="40px" filterUnits="userSpaceOnUse" id="filter32">
      <feOffset dx="0" dy="2" in="SourceAlpha" result="shadowOffsetInner" />
      <feGaussianBlur stdDeviation="1" in="shadowOffsetInner" result="shadowGaussian" />
      <feComposite in2="shadowGaussian" operator="atop" in="SourceAlpha" result="shadowComposite" />
      <feColorMatrix type="matrix" values="0 0 0 0 0  0 0 0 0 0  0 0 0 0 0  0 0 0 0.349019607843137 0  " in="shadowComposite" />
    </filter>
    <g id="widget33">
      <path d="M 276 11  A 3 3 0 0 1 279 8 L 349 8  A 3 3 0 0 1 352 11 L 352 39  A 3 3 0 0 1 349 42 L 279 42  A 3 3 0 0 1 276 39 L 276 11  Z " fill-rule="nonzero" fill="#6200ee" stroke="none" fill-opacity="0" />
      <path d="M 275.5 11  A 3.5 3.5 0 0 1 279 7.5 L 349 7.5  A 3.5 3.5 0 0 1 352.5 11 L 352.5 39  A 3.5 3.5 0 0 1 349 42.5 L 279 42.5  A 3.5 3.5 0 0 1 275.5 39 L 275.5 11  Z " stroke-width="1" stroke="#000000" fill="none" stroke-opacity="0.117647058823529" />
    </g>
  </defs>
  <g transform="matrix(1 0 0 1 -273 -7 )">
    <use xlink:href="#widget33" filter="url(#filter32)" />
    <use xlink:href="#widget33" />
  </g>
</svg>