<?xml version="1.0" encoding="utf-8"?>
<svg version="1.1" xmlns:xlink="http://www.w3.org/1999/xlink" width="88px" height="40px" xmlns="http://www.w3.org/2000/svg">
  <defs>
    <filter x="270px" y="7px" width="88px" height="40px" filterUnits="userSpaceOnUse" id="filter35">
      <feOffset dx="0" dy="2" in="SourceAlpha" result="shadowOffsetInner" />
      <feGaussianBlur stdDeviation="1" in="shadowOffsetInner" result="shadowGaussian" />
      <feComposite in2="shadowGaussian" operator="atop" in="SourceAlpha" result="shadowComposite" />
      <feColorMatrix type="matrix" values="0 0 0 0 0  0 0 0 0 0  0 0 0 0 0  0 0 0 0.349019607843137 0  " in="shadowComposite" />
    </filter>
    <g id="widget36">
      <path d="M 273 11  A 3 3 0 0 1 276 8 L 352 8  A 3 3 0 0 1 355 11 L 355 39  A 3 3 0 0 1 352 42 L 276 42  A 3 3 0 0 1 273 39 L 273 11  Z " fill-rule="nonzero" fill="#6200ee" stroke="none" fill-opacity="0" />
      <path d="M 272.5 11  A 3.5 3.5 0 0 1 276 7.5 L 352 7.5  A 3.5 3.5 0 0 1 355.5 11 L 355.5 39  A 3.5 3.5 0 0 1 352 42.5 L 276 42.5  A 3.5 3.5 0 0 1 272.5 39 L 272.5 11  Z " stroke-width="1" stroke="#000000" fill="none" stroke-opacity="0.117647058823529" />
    </g>
  </defs>
  <g transform="matrix(1 0 0 1 -270 -7 )">
    <use xlink:href="#widget36" filter="url(#filter35)" />
    <use xlink:href="#widget36" />
  </g>
</svg>