<?xml version="1.0" encoding="utf-8"?>
<svg version="1.1" xmlns:xlink="http://www.w3.org/1999/xlink" width="53px" height="16px" xmlns="http://www.w3.org/2000/svg">
  <defs>
    <mask fill="white" id="clip69">
      <path d="M 0 11.2941176470588  L 0 4.70588235294118  C 0 2.07058823529416  2.19999999999999 0  5 0  L 26.0212765957447 0  L 48 0  C 50.8 0  53 2.07058823529416  53 4.70588235294118  L 53 11.2941176470588  C 53 13.9294117647058  50.8 16  48 16  L 5 16  C 2.19999999999999 16  0 13.9294117647058  0 11.2941176470588  Z " fill-rule="evenodd" />
    </mask>
  </defs>
  <g transform="matrix(1 0 0 1 -192 -710 )">
    <path d="M 0 11.2941176470588  L 0 4.70588235294118  C 0 2.07058823529416  2.19999999999999 0  5 0  L 26.0212765957447 0  L 48 0  C 50.8 0  53 2.07058823529416  53 4.70588235294118  L 53 11.2941176470588  C 53 13.9294117647058  50.8 16  48 16  L 5 16  C 2.19999999999999 16  0 13.9294117647058  0 11.2941176470588  Z " fill-rule="nonzero" fill="#ffffff" stroke="none" transform="matrix(1 0 0 1 192 710 )" />
    <path d="M 0 11.2941176470588  L 0 4.70588235294118  C 0 2.07058823529416  2.19999999999999 0  5 0  L 26.0212765957447 0  L 48 0  C 50.8 0  53 2.07058823529416  53 4.70588235294118  L 53 11.2941176470588  C 53 13.9294117647058  50.8 16  48 16  L 5 16  C 2.19999999999999 16  0 13.9294117647058  0 11.2941176470588  Z " stroke-width="2" stroke="#797979" fill="none" transform="matrix(1 0 0 1 192 710 )" mask="url(#clip69)" />
  </g>
</svg>