<?xml version="1.0" encoding="utf-8"?>
<svg version="1.1" xmlns:xlink="http://www.w3.org/1999/xlink" width="30px" height="30px" xmlns="http://www.w3.org/2000/svg">
  <g transform="matrix(1 0 0 1 -366 -49 )">
    <path d="M 29.80078125 21.689453125  C 29.93359375 22.6725260416667  30 23.7174479166667  30 24.82421875  C 30 26.2434895833333  29.51171875 27.4609375  28.53515625 28.4765625  C 27.55859375 29.4921875  26.3828125 30  25.0078125 30  L 4.9921875 30  C 3.6171875 30  2.44140625 29.4921875  1.46484375 28.4765625  C 0.48828125 27.4609375  0 26.2434895833333  0 24.82421875  C 0 23.7174479166667  0.0664062500000002 22.6725260416667  0.19921875 21.689453125  C 0.33203125 20.7063802083333  0.578125 19.716796875  0.9375 18.720703125  C 1.296875 17.724609375  1.75390625 16.8717447916667  2.30859375 16.162109375  C 2.86328125 15.4524739583333  3.59765625 14.873046875  4.51171875 14.423828125  C 5.42578125 13.974609375  6.4765625 13.75  7.6640625 13.75  C 9.7109375 15.4166666666667  12.15625 16.25  15 16.25  C 17.84375 16.25  20.2890625 15.4166666666667  22.3359375 13.75  C 23.5234375 13.75  24.57421875 13.974609375  25.48828125 14.423828125  C 26.40234375 14.873046875  27.13671875 15.4524739583333  27.69140625 16.162109375  C 28.24609375 16.8717447916667  28.703125 17.724609375  29.0625 18.720703125  C 29.421875 19.716796875  29.66796875 20.7063802083333  29.80078125 21.689453125  Z M 21.36328125 2.197265625  C 23.12109375 3.662109375  24 5.4296875  24 7.5  C 24 9.5703125  23.12109375 11.337890625  21.36328125 12.802734375  C 19.60546875 14.267578125  17.484375 15  15 15  C 12.515625 15  10.39453125 14.267578125  8.63671875 12.802734375  C 6.87890625 11.337890625  6 9.5703125  6 7.5  C 6 5.4296875  6.87890625 3.662109375  8.63671875 2.197265625  C 10.39453125 0.732421875  12.515625 0  15 0  C 17.484375 0  19.60546875 0.732421875  21.36328125 2.197265625  Z " fill-rule="nonzero" fill="#ffffff" stroke="none" transform="matrix(1 0 0 1 366 49 )" />
  </g>
</svg>