<?xml version="1.0" encoding="utf-8"?>
<svg version="1.1" xmlns:xlink="http://www.w3.org/1999/xlink" width="39px" height="36px" xmlns="http://www.w3.org/2000/svg">
  <g transform="matrix(1 0 0 1 -364 -9 )">
    <path d="M 24.095703125 22.2421875  C 25.365234375 21.0703125  26 19.65625  26 18  C 26 16.34375  25.365234375 14.9296875  24.095703125 13.7578125  C 22.826171875 12.5859375  21.2942708333333 12  19.5 12  C 17.7057291666667 12  16.173828125 12.5859375  14.904296875 13.7578125  C 13.634765625 14.9296875  13 16.34375  13 18  C 13 19.65625  13.634765625 21.0703125  14.904296875 22.2421875  C 16.173828125 23.4140625  17.7057291666667 24  19.5 24  C 21.2942708333333 24  22.826171875 23.4140625  24.095703125 22.2421875  Z M 38.796875 14.89453125  C 38.9322916666667 15.05859375  39 15.2421875  39 15.4453125  L 39 20.6484375  C 39 20.8359375  38.9322916666667 21.015625  38.796875 21.1875  C 38.6614583333333 21.359375  38.4921875 21.4609375  38.2890625 21.4921875  L 33.591796875 22.1484375  C 33.2701822916667 22.9921875  32.9401041666667 23.703125  32.6015625 24.28125  C 33.1940104166667 25.0625  34.099609375 26.140625  35.318359375 27.515625  C 35.4876302083333 27.703125  35.572265625 27.8984375  35.572265625 28.1015625  C 35.572265625 28.3046875  35.49609375 28.484375  35.34375 28.640625  C 34.88671875 29.21875  34.048828125 30.0625  32.830078125 31.171875  C 31.611328125 32.28125  30.8157552083333 32.8359375  30.443359375 32.8359375  C 30.240234375 32.8359375  30.0201822916667 32.765625  29.783203125 32.625  L 26.279296875 30.09375  C 25.5345052083333 30.453125  24.7643229166667 30.75  23.96875 30.984375  C 23.6979166666667 33.109375  23.4524739583333 34.5625  23.232421875 35.34375  C 23.1139322916667 35.78125  22.8092447916667 36  22.318359375 36  L 16.681640625 36  C 16.4446614583333 36  16.2373046875 35.93359375  16.0595703125 35.80078125  C 15.8818359375 35.66796875  15.7845052083333 35.5  15.767578125 35.296875  L 15.056640625 30.984375  C 14.2272135416667 30.734375  13.4654947916667 30.4453125  12.771484375 30.1171875  L 9.19140625 32.625  C 9.02213541666667 32.765625  8.810546875 32.8359375  8.556640625 32.8359375  C 8.31966145833333 32.8359375  8.10807291666667 32.75  7.921875 32.578125  C 5.7890625 30.796875  4.392578125 29.484375  3.732421875 28.640625  C 3.61393229166667 28.484375  3.5546875 28.3046875  3.5546875 28.1015625  C 3.5546875 27.9140625  3.62239583333333 27.734375  3.7578125 27.5625  C 4.01171875 27.234375  4.443359375 26.71484375  5.052734375 26.00390625  C 5.662109375 25.29296875  6.119140625 24.7421875  6.423828125 24.3515625  C 5.966796875 23.5703125  5.61979166666667 22.796875  5.3828125 22.03125  L 0.736328125 21.3984375  C 0.516276041666667 21.3671875  0.338541666666667 21.26953125  0.203125 21.10546875  C 0.0677083333333333 20.94140625  0 20.7578125  0 20.5546875  L 0 15.3515625  C 0 15.1640625  0.0677083333333333 14.984375  0.203125 14.8125  C 0.338541666666667 14.640625  0.499348958333333 14.5390625  0.685546875 14.5078125  L 5.408203125 13.8515625  C 5.64518229166667 13.1328125  5.97526041666667 12.4140625  6.3984375 11.6953125  C 5.72135416666667 10.8046875  4.81575520833333 9.7265625  3.681640625 8.4609375  C 3.51236979166667 8.2734375  3.427734375 8.0859375  3.427734375 7.8984375  C 3.427734375 7.7421875  3.50390625 7.56249999999999  3.65625 7.359375  C 4.09635416666667 6.796875  4.93001302083333 5.95703125  6.1572265625 4.83984375  C 7.38444010416667 3.72265625  8.18424479166667 3.1640625  8.556640625 3.1640625  C 8.77669270833333 3.1640625  8.99674479166667 3.2421875  9.216796875 3.3984375  L 12.720703125 5.90625  C 13.4654947916667 5.546875  14.2356770833333 5.25  15.03125 5.015625  C 15.3020833333333 2.890625  15.5475260416667 1.4375  15.767578125 0.656249999999999  C 15.8860677083333 0.218749999999998  16.1907552083333 0  16.681640625 0  L 22.318359375 0  C 22.5553385416667 0  22.7626953125 0.0664062499999969  22.9404296875 0.199218749999999  C 23.1181640625 0.332031249999996  23.2154947916667 0.499999999999998  23.232421875 0.703125  L 23.943359375 5.015625  C 24.7727864583333 5.265625  25.5345052083333 5.5546875  26.228515625 5.8828125  L 29.833984375 3.375  C 29.986328125 3.234375  30.189453125 3.1640625  30.443359375 3.1640625  C 30.6634114583333 3.1640625  30.875 3.2421875  31.078125 3.3984375  C 33.26171875 5.2578125  34.658203125 6.5859375  35.267578125 7.3828125  C 35.3860677083333 7.5078125  35.4453125 7.6796875  35.4453125 7.8984375  C 35.4453125 8.0859375  35.3776041666667 8.26562499999999  35.2421875 8.4375  C 34.98828125 8.765625  34.556640625 9.28515624999999  33.947265625 9.99609375  C 33.337890625 10.70703125  32.880859375 11.2578125  32.576171875 11.6484375  C 33.0162760416667 12.4296875  33.36328125 13.1953125  33.6171875 13.9453125  L 38.263671875 14.6015625  C 38.4837239583333 14.6328125  38.6614583333333 14.73046875  38.796875 14.89453125  Z " fill-rule="nonzero" fill="#000000" stroke="none" transform="matrix(1 0 0 1 364 9 )" />
  </g>
</svg>