<?xml version="1.0" encoding="utf-8"?>
<svg version="1.1" xmlns:xlink="http://www.w3.org/1999/xlink" width="182px" height="175px" xmlns="http://www.w3.org/2000/svg">
  <g transform="matrix(1 0 0 1 -13 -80 )">
    <path d="M 13 80  L 195 80  L 195 255  L 13 255  L 13 80  " fill-rule="nonzero" fill="#cccccc" stroke="none" />
    <path d="M 25 92  L 183 92  L 183 243  L 25 243  L 25 92  " fill-rule="nonzero" fill="#ffffff" stroke="none" />
    <path d="M 120.765 132.5  C 113.415 132.5  107.64 126.725  107.64 119.375  C 107.64 112.025  113.415 106.25  120.765 106.25  C 128.115 106.25  133.89 112.025  133.89 119.375  C 133.89 126.725  128.115 132.5  120.765 132.5  " fill-rule="nonzero" fill="#cccccc" stroke="none" />
    <path d="M 30 239  L 30 160.9  L 67.25 125.4  L 119.4 157.076923076923  L 149.2 146.7  L 179 157.076923076923  L 179 239  L 30 239  " fill-rule="nonzero" fill="#169bd5" stroke="none" />
  </g>
</svg>