<?xml version="1.0" encoding="utf-8"?>
<svg version="1.1" xmlns:xlink="http://www.w3.org/1999/xlink" width="140px" height="140px" xmlns="http://www.w3.org/2000/svg">
  <g transform="matrix(1 0 0 1 -29 -164 )">
    <path d="M 29 164  L 169 164  L 169 304  L 29 304  L 29 164  " fill-rule="nonzero" fill="#cccccc" stroke="none" />
    <path d="M 39 174  L 159 174  L 159 294  L 39 294  L 39 174  " fill-rule="nonzero" fill="#ffffff" stroke="none" />
    <path d="M 112.3 206  C 106.42 206  101.8 201.38  101.8 195.5  C 101.8 189.62  106.42 185  112.3 185  C 118.18 185  122.8 189.62  122.8 195.5  C 122.8 201.38  118.18 206  112.3 206  " fill-rule="nonzero" fill="#cccccc" stroke="none" />
    <path d="M 43 291  L 43 228.85  L 71.25 200.6  L 110.8 223.2  L 133.4 217.55  L 156 223.2  L 156 291  L 43 291  " fill-rule="nonzero" fill="#169bd5" stroke="none" />
    <path d="M 29.5 303.5  L 29.5 164.5  L 168.5 164.5  L 168.5 303.5  L 29.5 303.5  Z " stroke-width="1" stroke="#d7d7d7" fill="none" />
  </g>
</svg>