<?xml version="1.0" encoding="utf-8"?>
<svg version="1.1" xmlns:xlink="http://www.w3.org/1999/xlink" width="93px" height="108px" xmlns="http://www.w3.org/2000/svg">
  <g transform="matrix(1 0 0 1 -263 -553 )">
    <path d="M 28.4397321428571 4.27901785714286  C 34.1830357142857 1.42633928571429  40.203125 0  46.5 0  C 52.796875 0  58.8169642857143 1.42633928571429  64.5602678571429 4.27901785714286  C 70.3035714285714 7.13169642857143  75.2511160714286 10.96875  79.4029017857143 15.7901785714286  C 83.5546875 20.6116071428571  86.8588169642857 26.3571428571428  89.3152901785714 33.0267857142857  C 91.7717633928572 39.6964285714286  93 46.6875  93 54  C 93 61.2723214285714  91.7804129464286 68.2433035714286  89.3412388392857 74.9129464285714  C 86.9020647321429 81.5825892857143  83.6065848214286 87.328125  79.4547991071429 92.1495535714286  C 75.3030133928571 96.9709821428571  70.35546875 100.818080357143  64.6121651785714 103.690848214286  C 58.8688616071429 106.563616071429  52.8314732142857 108  46.5 108  C 40.1685267857143 108  34.1311383928571 106.573660714286  28.3878348214286 103.720982142857  C 22.64453125 100.868303571429  17.7056361607143 97.0212053571428  13.5711495535714 92.1796875  C 9.43666294642857 87.3381696428571  6.14118303571429 81.5926339285714  3.68470982142857 74.9430803571429  C 1.22823660714286 68.2935267857143  0 61.3125  0 54  C 0 46.6875  1.22823660714286 39.6964285714286  3.68470982142857 33.0267857142857  C 6.14118303571429 26.3571428571428  9.4453125 20.6116071428571  13.5970982142857 15.7901785714286  C 17.7488839285714 10.96875  22.6964285714286 7.13169642857143  28.4397321428571 4.27901785714286  Z M 62.7438616071429 61.7142857142857  C 71.0474330357143 61.7142857142857  76.3409598214286 68.2834821428571  78.6244419642857 81.421875  C 83.7795758928572 73.1852678571429  86.3571428571429 64.0446428571428  86.3571428571429 54  C 86.3571428571429 47.7321428571429  85.3018973214286 41.7455357142857  83.19140625 36.0401785714286  C 81.0809151785714 30.3348214285714  78.2438616071429 25.4129464285714  74.6802455357143 21.2745535714286  C 71.1166294642857 17.1361607142857  66.8783482142857 13.8415178571429  61.9654017857143 11.390625  C 57.0524553571429 8.93973214285714  51.8973214285714 7.71428571428571  46.5 7.71428571428571  C 41.1026785714286 7.71428571428571  35.9475446428571 8.93973214285714  31.0345982142857 11.390625  C 26.1216517857143 13.8415178571429  21.8833705357143 17.1361607142857  18.3197544642857 21.2745535714286  C 14.7561383928571 25.4129464285714  11.9190848214286 30.3348214285714  9.80859375 36.0401785714286  C 7.69810267857143 41.7455357142857  6.64285714285714 47.7321428571429  6.64285714285714 54  C 6.64285714285714 64.0446428571428  9.22042410714286 73.1852678571429  14.3755580357143 81.421875  C 16.6590401785714 68.2834821428571  21.9525669642857 61.7142857142857  30.2561383928571 61.7142857142857  C 34.7885044642857 66.8571428571429  40.203125 69.4285714285714  46.5 69.4285714285714  C 52.796875 69.4285714285714  58.2114955357143 66.8571428571429  62.7438616071429 61.7142857142857  Z M 60.5901227678571 58.7912946428571  C 64.482421875 54.2712053571429  66.4285714285714 48.8169642857143  66.4285714285714 42.4285714285714  C 66.4285714285714 36.0401785714286  64.482421875 30.5859375  60.5901227678571 26.0658482142857  C 56.6978236607143 21.5457589285714  52.0011160714286 19.2857142857143  46.5 19.2857142857143  C 40.9988839285714 19.2857142857143  36.3021763392857 21.5457589285714  32.4098772321429 26.0658482142857  C 28.517578125 30.5859375  26.5714285714286 36.0401785714286  26.5714285714286 42.4285714285714  C 26.5714285714286 48.8169642857143  28.517578125 54.2712053571429  32.4098772321429 58.7912946428571  C 36.3021763392857 63.3113839285714  40.9988839285714 65.5714285714286  46.5 65.5714285714286  C 52.0011160714286 65.5714285714286  56.6978236607143 63.3113839285714  60.5901227678571 58.7912946428571  Z " fill-rule="nonzero" fill="#000000" stroke="none" transform="matrix(1 0 0 1 263 553 )" />
  </g>
</svg>