<?xml version="1.0" encoding="utf-8"?>
<svg version="1.1" xmlns:xlink="http://www.w3.org/1999/xlink" width="101px" height="102px" xmlns="http://www.w3.org/2000/svg">
  <g transform="matrix(1 0 0 1 -58 -557 )">
    <path d="M 86.4820322180917 58.2743569758379  C 86.5237505163156 58.3803585346843  86.5446096654275 58.539360872954  86 58.7513639906469  L 86 96.9119251753702  C 86.5446096654275 98.2899454403741  86.1482858323007 99.4824629773967  85.3556381660471 100.489477786438  C 84.5629904997935 101.496492595479  83.6243287897563 102  82.5396530359356 102  L 58 102  L 58 71  L 43 71  L 43 102  L 18.4603469640644 102  C 17.3756712102437 102  16.4370095002065 101.496492595479  15.6443618339529 100.489477786438  C 14.8517141676993 99.4824629773967  14.4553903345725 98.2899454403741  15 96.9119251753702  L 15 58.7513639906469  C 14.4553903345725 58.6983632112237  14.4658199091285 58.6188620420888  14.4866790582404 58.5128604832424  C 14.5075382073523 58.4068589243959  14.5179677819083 58.3273577552611  14.5179677819083 58.2743569758379  L 50.5 20.5908028059236  L 86.4820322180917 58.2743569758379  Z M 100.937422552664 51.3975058456742  C 100.979140850888 52.1130163678878  100.833126807105 52.7357755261107  100.499380421314 53.265783320343  L 96.6195786864932 59.1488698363211  C 96.2858323007022 59.6258768511302  95.8477901693515 59.9173811379579  95.3054522924411 60.0233826968044  L 95.1177199504337 60.0233826968044  C 94.5753820735233 60.0233826968044  94.1373399421727 59.8378799688231  93.8035935563817 59.4668745128605  L 50.5 13.5946999220577  L 7.19640644361834 59.4668745128605  C 6.69578686493185 59.8908807482463  6.19516728624535 60.0763834762276  5.69454770755886 60.0233826968044  C 5.15220983064849 59.9173811379579  4.71416769929781 59.6258768511302  4.38042131350682 59.1488698363211  L 0.500619578686493 53.265783320343  C 0.166873192895498 52.7357755261107  0.0208591491119374 52.1130163678878  0.0625774473358117 51.3975058456742  C 0.104295745559686 50.6819953234606  0.333746385790996 50.1122369446609  0.75092936802974 49.6882307092751  L 45.7441140024783 2.06703039750585  C 47.0790995456423 0.689010132501938  48.6643948781495 0  50.5 0  C 52.3356051218505 0  53.9209004543577 0.689010132501938  55.2558859975217 2.06703039750585  L 70 18.2852689010132  L 70 2.7825409197194  C 70.5247831474597 2.04053000779422  70.7125154894672 1.43102104442712  71.087980173482 0.954014029618087  C 71.4634448574969 0.477007014809044  71.9432052870715 0.238503507404522  72.5272614622057 1  L 84.5421313506815 1  C 85.1261875258158 0.238503507404522  85.6059479553903 0.477007014809044  85.9814126394052 0.954014029618087  C 86.3568773234201 1.43102104442712  86.5446096654275 2.04053000779422  86 2.7825409197194  L 86 35.2190179267342  L 100.24907063197 49.6882307092751  C 100.666253614209 50.1122369446609  100.89570425444 50.6819953234606  100.937422552664 51.3975058456742  Z " fill-rule="nonzero" fill="#000000" stroke="none" transform="matrix(1 0 0 1 58 557 )" />
  </g>
</svg>