<?xml version="1.0" encoding="utf-8"?>
<svg version="1.1" xmlns:xlink="http://www.w3.org/1999/xlink" width="152px" height="20px" xmlns="http://www.w3.org/2000/svg">
  <defs>
    <mask fill="white" id="clip29">
      <path d="M 0 14.7368421052632  L 0 5.26315789473684  C 0 2.3157894736842  2.07701863354038 0  4.72049689440994 0  L 41.5403726708075 0  L 42.4844720496894 0  L 76.472049689441 0  L 89.6894409937888 0  L 101.018633540373 0  L 147.27950310559 0  C 149.92298136646 0  152 2.3157894736842  152 5.26315789473684  L 152 14.7368421052632  C 152 17.6842105263158  149.92298136646 20  147.27950310559 20  L 4.72049689440994 20  C 2.07701863354038 20  0 17.6842105263158  0 14.7368421052632  Z " fill-rule="evenodd" />
    </mask>
  </defs>
  <g transform="matrix(1 0 0 1 -96 -254 )">
    <path d="M 0 14.7368421052632  L 0 5.26315789473684  C 0 2.3157894736842  2.07701863354038 0  4.72049689440994 0  L 41.5403726708075 0  L 42.4844720496894 0  L 76.472049689441 0  L 89.6894409937888 0  L 101.018633540373 0  L 147.27950310559 0  C 149.92298136646 0  152 2.3157894736842  152 5.26315789473684  L 152 14.7368421052632  C 152 17.6842105263158  149.92298136646 20  147.27950310559 20  L 4.72049689440994 20  C 2.07701863354038 20  0 17.6842105263158  0 14.7368421052632  Z " fill-rule="nonzero" fill="#ffffff" stroke="none" transform="matrix(1 0 0 1 96 254 )" />
    <path d="M 0 14.7368421052632  L 0 5.26315789473684  C 0 2.3157894736842  2.07701863354038 0  4.72049689440994 0  L 41.5403726708075 0  L 42.4844720496894 0  L 76.472049689441 0  L 89.6894409937888 0  L 101.018633540373 0  L 147.27950310559 0  C 149.92298136646 0  152 2.3157894736842  152 5.26315789473684  L 152 14.7368421052632  C 152 17.6842105263158  149.92298136646 20  147.27950310559 20  L 4.72049689440994 20  C 2.07701863354038 20  0 17.6842105263158  0 14.7368421052632  Z " stroke-width="2" stroke="#797979" fill="none" transform="matrix(1 0 0 1 96 254 )" mask="url(#clip29)" />
  </g>
</svg>