<?xml version="1.0" encoding="utf-8"?>
<svg version="1.1" xmlns:xlink="http://www.w3.org/1999/xlink" width="161px" height="19px" xmlns="http://www.w3.org/2000/svg">
  <defs>
    <mask fill="white" id="clip43">
      <path d="M 0 14  L 0 5  C 0 2.19999999999999  2.2 0  5 0  L 44 0  L 45 0  L 81 0  L 95 0  L 107 0  L 156 0  C 158.8 0  161 2.19999999999999  161 5  L 161 14  C 161 16.8  158.8 19  156 19  L 5 19  C 2.2 19  0 16.8  0 14  Z " fill-rule="evenodd" />
    </mask>
  </defs>
  <g transform="matrix(1 0 0 1 -91 -254 )">
    <path d="M 0 14  L 0 5  C 0 2.19999999999999  2.2 0  5 0  L 44 0  L 45 0  L 81 0  L 95 0  L 107 0  L 156 0  C 158.8 0  161 2.19999999999999  161 5  L 161 14  C 161 16.8  158.8 19  156 19  L 5 19  C 2.2 19  0 16.8  0 14  Z " fill-rule="nonzero" fill="#ffffff" stroke="none" transform="matrix(1 0 0 1 91 254 )" />
    <path d="M 0 14  L 0 5  C 0 2.19999999999999  2.2 0  5 0  L 44 0  L 45 0  L 81 0  L 95 0  L 107 0  L 156 0  C 158.8 0  161 2.19999999999999  161 5  L 161 14  C 161 16.8  158.8 19  156 19  L 5 19  C 2.2 19  0 16.8  0 14  Z " stroke-width="2" stroke="#797979" fill="none" transform="matrix(1 0 0 1 91 254 )" mask="url(#clip43)" />
  </g>
</svg>