<?xml version="1.0" encoding="utf-8"?>
<svg version="1.1" xmlns:xlink="http://www.w3.org/1999/xlink" width="205px" height="207px" xmlns="http://www.w3.org/2000/svg">
  <g transform="matrix(1 0 0 1 -17 -16 )">
    <path d="M 17 16  L 222 16  L 222 223  L 17 223  L 17 16  " fill-rule="nonzero" fill="#cccccc" stroke="none" />
    <path d="M 31 30  L 208 30  L 208 209  L 31 209  L 31 30  " fill-rule="nonzero" fill="#ffffff" stroke="none" />
    <path d="M 138.975 77.8  C 130.365 77.8  123.6 71.035  123.6 62.425  C 123.6 53.815  130.365 47.05  138.975 47.05  C 147.585 47.05  154.35 53.815  154.35 62.425  C 154.35 71.035  147.585 77.8  138.975 77.8  " fill-rule="nonzero" fill="#cccccc" stroke="none" />
    <path d="M 36 204  L 36 111.05  L 77.75 68.8  L 136.2 102.6  L 169.6 94.15  L 203 102.6  L 203 204  L 36 204  " fill-rule="nonzero" fill="#169bd5" stroke="none" />
  </g>
</svg>