<?xml version="1.0" encoding="utf-8"?>
<svg version="1.1" xmlns:xlink="http://www.w3.org/1999/xlink" width="30px" height="19px" xmlns="http://www.w3.org/2000/svg">
  <defs>
    <mask fill="white" id="clip39">
      <path d="M 0 19  L 0 0  L 17 0  L 19 0  L 20 0  L 30 0  L 30 19  L 0 19  Z " fill-rule="evenodd" />
    </mask>
  </defs>
  <g transform="matrix(1 0 0 1 -358 -25 )">
    <path d="M 0 19  L 0 0  L 17 0  L 19 0  L 20 0  L 30 0  L 30 19  L 0 19  Z " fill-rule="nonzero" fill="#ffffff" stroke="none" fill-opacity="0" transform="matrix(1 0 0 1 358 25 )" />
    <path d="M 0 19  L 0 0  L 17 0  L 19 0  L 20 0  L 30 0  L 30 19  L 0 19  Z " stroke-width="2" stroke="#797979" fill="none" transform="matrix(1 0 0 1 358 25 )" mask="url(#clip39)" />
  </g>
</svg>