<?xml version="1.0" encoding="utf-8"?>
<svg version="1.1" xmlns:xlink="http://www.w3.org/1999/xlink" width="27px" height="19px" xmlns="http://www.w3.org/2000/svg">
  <defs>
    <mask fill="white" id="clip25">
      <path d="M 0 19  L 0 0  L 15.3 0  L 17.1 0  L 18 0  L 27 0  L 27 19  L 0 19  Z " fill-rule="evenodd" />
    </mask>
  </defs>
  <g transform="matrix(1 0 0 1 -360 -25 )">
    <path d="M 0 19  L 0 0  L 15.3 0  L 17.1 0  L 18 0  L 27 0  L 27 19  L 0 19  Z " fill-rule="nonzero" fill="#ffffff" stroke="none" fill-opacity="0" transform="matrix(1 0 0 1 360 25 )" />
    <path d="M 0 19  L 0 0  L 15.3 0  L 17.1 0  L 18 0  L 27 0  L 27 19  L 0 19  Z " stroke-width="2" stroke="#797979" fill="none" transform="matrix(1 0 0 1 360 25 )" mask="url(#clip25)" />
  </g>
</svg>