<?xml version="1.0" encoding="utf-8"?>
<svg version="1.1" xmlns:xlink="http://www.w3.org/1999/xlink" width="48px" height="50px" xmlns="http://www.w3.org/2000/svg">
  <g transform="matrix(1 0 0 1 -299 -716 )">
    <path d="M 20 13.0408653846154  L 24 13.0408653846154  L 24 26.0817307692308  L 20 26.0817307692308  L 20 13.0408653846154  Z M 31 13.0408653846154  L 36 13.0408653846154  L 36 26.0817307692308  L 31 26.0817307692308  L 31 13.0408653846154  Z M 24 35  L 36 35  L 43 28.2451923076923  L 43 5  L 8 5  L 8 35.8774038461538  L 17.4572864321608 35.8774038461538  L 17.4572864321608 42.3978365384615  L 24 35  Z M 3.28643216080402 0  L 48 0  L 48 30.4387019230769  L 34.9145728643216 43.4795673076923  L 25.0854271356784 43.4795673076923  L 18.5427135678392 50  L 12 50  L 12 43  L 0 43  L 0 8.68389423076923  L 3.28643216080402 0  Z " fill-rule="nonzero" fill="#000000" stroke="none" transform="matrix(1 0 0 1 299 716 )" />
  </g>
</svg>