<?xml version="1.0" encoding="utf-8"?>
<svg version="1.1" xmlns:xlink="http://www.w3.org/1999/xlink" width="164px" height="175px" xmlns="http://www.w3.org/2000/svg">
  <g transform="matrix(1 0 0 1 -125 -190 )">
    <path d="M 143.660727013542 1.74750356633381  C 151.141838916607 -0.915359010936795  156.908529341886 -0.416072277698554  160.96079828938 3.24536376604851  C 164.389641244951 7.57251545411315  164.857210738893 13.7303851640514  162.363506771205 21.7189728958631  C 159.869802803516 29.7075606276747  155.661677358042 36.8640038040894  149.739130434783 43.188302425107  L 130.919458303635 63.2845934379458  L 149.622238061297 150.160485021398  C 150.011879306249 151.741559676652  149.544309812307 153.114598193058  148.219529579473 154.279600570613  L 133.257305773343 166.262482168331  C 132.711808030411 166.761768901569  131.971489665004 167.011412268188  131.03635067712 167.011412268188  C 130.724637681159 167.011412268188  130.451888809694 166.969805040418  130.218104062723 166.886590584879  C 129.049180327869 166.63694721826  128.230933713471 165.971231573942  127.76336421953 164.889443651926  L 95.1503920171062 101.48002853067  L 64.8752672843906 133.808844507846  L 71.0705630791162 158.0242510699  C 71.4602043240675 159.438896814075  71.1484913281064 160.728720874941  70.1354240912331 161.893723252496  L 58.9137562366358 173.876604850214  C 58.2124019957234 174.625534950071  57.3162271323355 175  56.2252316464718 175  L 55.9914468995011 175  C 54.8225231646472 174.833571088921  53.8873841767641 174.292677127912  53.1860299358517 173.377318116976  L 31.0933713471133 141.922253922967  L 1.63649322879544 118.330955777461  C 0.77928248990259 117.748454588683  0.272748871465906 116.791488349976  0.116892373485388 115.460057061341  C 0.0389641244951295 114.378269139325  0.389641244951295 113.338088445078  1.16892373485388 112.339514978602  L 12.3905915894512 100.231811697575  C 13.0919458303635 99.4828815977176  13.9881206937515 99.1084165477889  15.0791161796151 99.1084165477889  C 15.5466856735567 99.1084165477889  15.8583986695177 99.1500237755587  16.0142551674982 99.2332382310984  L 38.6913756236636 105.848787446505  L 68.9665003563792 73.5199714693295  L 9.58517462580185 38.6947218259629  C 8.49417913993823 38.0290061816453  7.83178902352103 37.0304327151688  7.59800427655025 35.6990014265335  C 7.44214777856973 34.3675701378982  7.7928248990259 33.2441749881122  8.65003563791875 32.3288159771755  L 23.6122594440485 16.3516405135521  C 24.7032549299121 15.2698525915359  25.872178664766 14.9369947693771  27.1190306486101 15.3530670470756  L 104.852459016393 35.1997146932953  L 123.555238774056 15.228245363766  C 129.477785697315 8.90394674274844  136.179615110478 4.41036614360437  143.660727013542 1.74750356633381  Z " fill-rule="nonzero" fill="#ec808d" stroke="none" transform="matrix(1 0 0 1 125 190 )" />
  </g>
</svg>