<?xml version="1.0" encoding="utf-8"?>
<svg version="1.1" xmlns:xlink="http://www.w3.org/1999/xlink" width="418px" height="134px" xmlns="http://www.w3.org/2000/svg">
  <g>
    <path d="M 0 0  L 418 0  L 418 134  L 0 134  L 0 0  " fill-rule="nonzero" fill="#cccccc" stroke="none" />
    <path d="M 9 9  L 409 9  L 409 125  L 9 125  L 9 9  " fill-rule="nonzero" fill="#ffffff" stroke="none" />
    <path d="M 227.41 40.2  C 221.782 40.2  217.36 35.778  217.36 30.15  C 217.36 24.522  221.782 20.1  227.41 20.1  C 233.038 20.1  237.46 24.522  237.46 30.15  C 237.46 35.778  233.038 40.2  227.41 40.2  " fill-rule="nonzero" fill="#cccccc" stroke="none" />
    <path d="M 13 122  L 13 62.05  L 111.25 34.8  L 248.8 101.034449760766  L 327.4 51.15  L 406 101.034449760766  L 406 122  L 13 122  " fill-rule="nonzero" fill="#169bd5" stroke="none" />
  </g>
</svg>