<?xml version="1.0" encoding="utf-8"?>
<svg version="1.1" xmlns:xlink="http://www.w3.org/1999/xlink" width="50px" height="41px" xmlns="http://www.w3.org/2000/svg">
  <g transform="matrix(1 0 0 1 -80 -69 )">
    <path d="M 15.5671296296296 36.1661931818182  C 16.3001543209877 35.4285037878788  16.6666666666667 34.5549242424242  16.6666666666667 33.5454545454545  C 16.6666666666667 32.5359848484848  16.3001543209877 31.6624053030303  15.5671296296296 30.9247159090909  C 14.8341049382716 30.1870265151515  13.9660493827161 29.8181818181818  12.962962962963 29.8181818181818  C 11.9598765432099 29.8181818181818  11.0918209876543 30.1870265151515  10.3587962962963 30.9247159090909  C 9.62577160493827 31.6624053030303  9.25925925925926 32.5359848484848  9.25925925925926 33.5454545454545  C 9.25925925925926 34.5549242424242  9.62577160493827 35.4285037878788  10.3587962962963 36.1661931818182  C 11.0918209876543 36.9038825757576  11.9598765432099 37.2727272727273  12.962962962963 37.2727272727273  C 13.9660493827161 37.2727272727273  14.8341049382716 36.9038825757576  15.5671296296296 36.1661931818182  Z M 5.55555555555556 17.7627840909091  L 5.55555555555556 19  L 16.6666666666667 19  L 16.6666666666667 11.1818181818182  L 12.0949074074074 11.1818181818182  C 11.8441358024691 11.1818181818182  11.6319444444444 11.2691761363636  11.4583333333333 11.4438920454545  L 5.81597222222222 17.1221590909091  C 5.64236111111111 17.296875  5.55555555555556 17.5104166666667  5.55555555555556 17.7627840909091  Z M 41.4930555555556 36.1661931818182  C 42.2260802469136 35.4285037878788  42.5925925925926 34.5549242424242  42.5925925925926 33.5454545454545  C 42.5925925925926 32.5359848484848  42.2260802469136 31.6624053030303  41.4930555555556 30.9247159090909  C 40.7600308641975 30.1870265151515  39.891975308642 29.8181818181818  38.8888888888889 29.8181818181818  C 37.8858024691358 29.8181818181818  37.0177469135803 30.1870265151515  36.2847222222222 30.9247159090909  C 35.5516975308642 31.6624053030303  35.1851851851852 32.5359848484848  35.1851851851852 33.5454545454545  C 35.1851851851852 34.5549242424242  35.5516975308642 35.4285037878788  36.2847222222222 36.1661931818182  C 37.0177469135803 36.9038825757576  37.8858024691358 37.2727272727273  38.8888888888889 37.2727272727273  C 39.891975308642 37.2727272727273  40.7600308641975 36.9038825757576  41.4930555555556 36.1661931818182  Z M 49.4502314814815 0.553267045454548  C 49.8167438271605 0.922111742424237  50 1.35890151515151  50 1.86363636363636  L 50 31.6818181818182  C 50 31.9730113636364  49.9614197530864 32.2302320075758  49.8842592592593 32.4534801136364  C 49.8070987654321 32.676728219697  49.6768904320988 32.8562973484848  49.4936342592593 32.9921875  C 49.3103780864198 33.1280776515152  49.1512345679012 33.2397017045455  49.0162037037037 33.3270596590909  C 48.8811728395062 33.4144176136364  48.6545138888889 33.47265625  48.3362268518519 33.5017755681818  C 48.0179398148148 33.5308948863636  47.8009259259259 33.5503077651515  47.6851851851852 33.5600142045455  C 47.5694444444444 33.5697206439394  47.3234953703704 33.5697206439394  46.947337962963 33.5600142045455  C 46.5711805555556 33.5503077651515  46.3541666666667 33.5454545454545  46.2962962962963 33.5454545454545  C 46.2962962962963 35.6032196969697  45.5729166666667 37.3600852272727  44.1261574074074 38.8160511363636  C 42.6793981481481 40.2720170454545  40.9336419753086 41  38.8888888888889 41  C 36.8441358024691 41  35.0983796296296 40.2720170454545  33.6516203703704 38.8160511363636  C 32.2048611111111 37.3600852272727  31.4814814814815 35.6032196969697  31.4814814814815 33  L 20.3703703703704 33  C 20.3703703703704 35.6032196969697  19.6469907407407 37.3600852272727  18.2002314814815 38.8160511363636  C 16.7534722222222 40.2720170454545  15.0077160493827 41  12.962962962963 41  C 10.9182098765432 41  9.1724537037037 40.2720170454545  7.72569444444444 38.8160511363636  C 6.27893518518518 37.3600852272727  5.55555555555556 35.6032196969697  5.55555555555556 33.5454545454545  L 3.7037037037037 33.5454545454545  C 3.64583333333333 33.5454545454545  3.42881944444444 33.5503077651515  3.05266203703704 33.5600142045455  C 2.67650462962963 33.5697206439394  2.43055555555556 33.5697206439394  2.31481481481481 33.5600142045455  C 2.19907407407407 33.5503077651515  1.98206018518519 33.5308948863636  1.66377314814815 33.5017755681818  C 1.34548611111111 33.47265625  1.11882716049383 33.4144176136364  0.983796296296296 33.3270596590909  C 0.848765432098766 33.2397017045455  0.689621913580247 33.1280776515152  0.506365740740741 32.9921875  C 0.323109567901235 32.8562973484848  0.192901234567901 32.676728219697  0.115740740740741 32.4534801136364  C 0.0385802469135805 32.2302320075758  0 31.9730113636364  0 31.6818181818182  C 0 31.1770833333333  0.183256172839506 30.7402935606061  0.549768518518518 30.3714488636364  C 0.916280864197532 30.0026041666667  1.35030864197531 29.8181818181818  1.85185185185185 29.8181818181818  L 1.85185185185185 20.5  C 1.85185185185185 20.344696969697  1.84702932098765 20.0049715909091  1.83738425925926 19.4808238636364  C 1.82773919753086 18.9566761363636  1.82773919753086 18.5878314393939  1.83738425925926 18.3742897727273  C 1.84702932098765 18.1607481060606  1.87114197530864 17.8258759469697  1.90972222222222 17.3696732954545  C 1.9483024691358 16.9134706439394  2.01099537037037 16.5543323863636  2.09780092592593 16.2922585227273  C 2.18460648148148 16.0301846590909  2.31963734567901 15.7341382575758  2.50289351851852 15.4041193181818  C 2.68614969135802 15.0741003787879  2.90316358024691 14.7829071969697  3.15393518518519 14.5305397727273  L 8.88310185185185 8.76491477272727  C 9.24961419753087 8.39607007575757  9.73668981481482 8.08546401515151  10.3443287037037 7.83309659090909  C 10.9519675925926 7.58072916666666  11.5162037037037 7.45454545454545  12.037037037037 7.45454545454545  L 16.6666666666667 7.45454545454545  L 16.6666666666667 1.86363636363636  C 16.6666666666667 1.35890151515151  16.8499228395062 0.922111742424237  17.2164351851852 0.553267045454548  C 17.5829475308642 0.184422348484845  18.016975308642 0  18.5185185185185 0  L 48.1481481481481 0  C 48.6496913580247 0  49.0837191358025 0.184422348484845  49.4502314814815 0.553267045454548  Z " fill-rule="nonzero" fill="#000000" stroke="none" transform="matrix(1 0 0 1 80 69 )" />
  </g>
</svg>