<?xml version="1.0" encoding="utf-8"?>
<svg version="1.1" xmlns:xlink="http://www.w3.org/1999/xlink" width="20px" height="24px" xmlns="http://www.w3.org/2000/svg">
  <g transform="matrix(1 0 0 1 -374 -20 )">
    <path d="M 10 22.9285714285714  C 10.1282051282051 22.9285714285714  10.1923076923077 22.8571428571429  10.1923076923077 22.7142857142857  C 10.1923076923077 22.5714285714286  10.1282051282051 22.5  10 22.5  C 9.52724358974359 22.5  9.12059294871795 22.3102678571429  8.78004807692308 21.9308035714286  C 8.43950320512821 21.5513392857143  8.26923076923077 21.0982142857143  8.26923076923077 20.5714285714286  C 8.26923076923077 20.4285714285714  8.20512820512821 20.3571428571429  8.07692307692308 20.3571428571429  C 7.94871794871795 20.3571428571429  7.88461538461538 20.4285714285714  7.88461538461538 20.5714285714286  C 7.88461538461538 21.2232142857143  8.09094551282051 21.7790178571429  8.50360576923077 22.2388392857143  C 8.91626602564103 22.6986607142857  9.4150641025641 22.9285714285714  10 22.9285714285714  Z M 18.90625 17.6785714285714  C 19.2347756410256 18.0892857142857  19.599358974359 18.4821428571429  20 18.8571428571429  C 20 19.3214285714286  19.8477564102564 19.7232142857143  19.5432692307692 20.0625  C 19.2387820512821 20.4017857142857  18.8782051282051 20.5714285714286  18.4615384615385 20.5714285714286  L 13.0769230769231 20.5714285714286  C 13.0769230769231 21.5178571428571  12.7764423076923 22.3258928571429  12.1754807692308 22.9955357142857  C 11.5745192307692 23.6651785714286  10.849358974359 24  10 24  C 9.15064102564103 24  8.42548076923077 23.6651785714286  7.82451923076923 22.9955357142857  C 7.22355769230769 22.3258928571429  6.92307692307692 21.5178571428571  6.92307692307692 20.5714285714286  L 1.53846153846154 20.5714285714286  C 1.12179487179487 20.5714285714286  0.761217948717949 20.4017857142857  0.456730769230769 20.0625  C 0.15224358974359 19.7232142857143  0 19.3214285714286  0 18.8571428571429  C 0.400641025641026 18.4821428571429  0.765224358974359 18.0892857142857  1.09375 17.6785714285714  C 1.42227564102564 17.2678571428571  1.76282051282051 16.734375  2.11538461538462 16.078125  C 2.46794871794872 15.421875  2.76642628205128 14.7142857142857  3.01081730769231 13.9553571428571  C 3.25520833333333 13.1964285714286  3.45552884615385 12.2767857142857  3.61177884615385 11.1964285714286  C 3.76802884615385 10.1160714285714  3.84615384615385 8.95535714285714  3.84615384615385 7.71428571428571  C 3.84615384615385 6.35714285714286  4.31490384615385 5.09598214285714  5.25240384615385 3.93080357142857  C 6.18990384615385 2.765625  7.4198717948718 2.05803571428571  8.94230769230769 1.80803571428571  C 8.87820512820513 1.63839285714285  8.84615384615385 1.46428571428571  8.84615384615385 1.28571428571429  C 8.84615384615385 0.928571428571428  8.95833333333333 0.624999999999999  9.18269230769231 0.375  C 9.40705128205128 0.125000000000001  9.67948717948718 0  10 0  C 10.3205128205128 0  10.5929487179487 0.125000000000001  10.8173076923077 0.375  C 11.0416666666667 0.624999999999999  11.1538461538462 0.928571428571428  11.1538461538462 1.28571428571429  C 11.1538461538462 1.46428571428571  11.1217948717949 1.63839285714285  11.0576923076923 1.80803571428571  C 12.5801282051282 2.05803571428571  13.8100961538462 2.765625  14.7475961538462 3.93080357142857  C 15.6850961538462 5.09598214285714  16.1538461538462 6.35714285714286  16.1538461538462 7.71428571428571  C 16.1538461538462 8.95535714285714  16.2319711538462 10.1160714285714  16.3882211538462 11.1964285714286  C 16.5444711538462 12.2767857142857  16.7447916666667 13.1964285714286  16.9891826923077 13.9553571428571  C 17.2335737179487 14.7142857142857  17.5320512820513 15.421875  17.8846153846154 16.078125  C 18.2371794871795 16.734375  18.5777243589744 17.2678571428571  18.90625 17.6785714285714  Z " fill-rule="nonzero" fill="#000000" stroke="none" transform="matrix(1 0 0 1 374 20 )" />
  </g>
</svg>