<?xml version="1.0" encoding="utf-8"?>
<svg version="1.1" xmlns:xlink="http://www.w3.org/1999/xlink" width="20px" height="20px" xmlns="http://www.w3.org/2000/svg">
  <g transform="matrix(1 0 0 1 -10 -20 )">
    <path d="M 19.7526041666667 16.296875  C 19.9175347222222 16.4947916666667  20 16.7291666666667  20 17  L 20 19  C 20 19.2708333333333  19.9175347222222 19.5052083333333  19.7526041666667 19.703125  C 19.5876736111111 19.9010416666667  19.3923611111111 20  19.1666666666667 20  L 0.833333333333333 20  C 0.607638888888889 20  0.412326388888889 19.9010416666667  0.247395833333333 19.703125  C 0.0824652777777778 19.5052083333333  0 19.2708333333333  0 19  L 0 17  C 0 16.7291666666667  0.0824652777777778 16.4947916666667  0.247395833333333 16.296875  C 0.412326388888889 16.0989583333333  0.607638888888889 16  0.833333333333333 16  L 19.1666666666667 16  C 19.3923611111111 16  19.5876736111111 16.0989583333333  19.7526041666667 16.296875  Z M 19.7526041666667 8.296875  C 19.9175347222222 8.49479166666667  20 8.72916666666667  20 9  L 20 11  C 20 11.2708333333333  19.9175347222222 11.5052083333333  19.7526041666667 11.703125  C 19.5876736111111 11.9010416666667  19.3923611111111 12  19.1666666666667 12  L 0.833333333333333 12  C 0.607638888888889 12  0.412326388888889 11.9010416666667  0.247395833333333 11.703125  C 0.0824652777777778 11.5052083333333  0 11.2708333333333  0 11  L 0 9  C 0 8.72916666666667  0.0824652777777778 8.49479166666667  0.247395833333333 8.296875  C 0.412326388888889 8.09895833333334  0.607638888888889 8  0.833333333333333 8  L 19.1666666666667 8  C 19.3923611111111 8  19.5876736111111 8.09895833333334  19.7526041666667 8.296875  Z M 19.7526041666667 0.296875000000001  C 19.9175347222222 0.494791666666665  20 0.729166666666665  20 1  L 20 3  C 20 3.27083333333333  19.9175347222222 3.50520833333333  19.7526041666667 3.703125  C 19.5876736111111 3.90104166666666  19.3923611111111 4  19.1666666666667 4  L 0.833333333333333 4  C 0.607638888888889 4  0.412326388888889 3.90104166666666  0.247395833333333 3.703125  C 0.0824652777777778 3.50520833333333  0 3.27083333333333  0 3  L 0 1  C 0 0.729166666666665  0.0824652777777778 0.494791666666665  0.247395833333333 0.296875000000001  C 0.412326388888889 0.0989583333333321  0.607638888888889 0  0.833333333333333 0  L 19.1666666666667 0  C 19.3923611111111 0  19.5876736111111 0.0989583333333321  19.7526041666667 0.296875000000001  Z " fill-rule="nonzero" fill="#000000" stroke="none" transform="matrix(1 0 0 1 10 20 )" />
  </g>
</svg>