<?xml version="1.0" encoding="utf-8"?>
<svg version="1.1" xmlns:xlink="http://www.w3.org/1999/xlink" width="36px" height="30px" xmlns="http://www.w3.org/2000/svg">
  <g transform="matrix(1 0 0 1 -18 -49 )">
    <path d="M 30.8252788104089 17.1395167575994  C 30.8401486988848 17.1706936866719  30.8475836431227 17.2174590802806  30.8475836431227 17.2798129384256  L 30.8475836431227 28.5035074045207  C 30.8475836431227 28.908807482463  30.7063197026022 29.2595479345284  30.4237918215613 29.5557287607171  C 30.1412639405204 29.8519095869057  29.8066914498141 30  29.4200743494424 30  L 20.8550185873606 30  L 20.8550185873606 21.0210444271239  L 15.1449814126394 21.0210444271239  L 15.1449814126394 30  L 6.57992565055762 30  C 6.19330855018587 30  5.85873605947955 29.8519095869057  5.57620817843866 29.5557287607171  C 5.29368029739777 29.2595479345284  5.15241635687732 28.908807482463  5.15241635687732 28.5035074045207  L 5.15241635687732 17.2798129384256  C 5.15241635687732 17.2642244738893  5.15613382899628 17.240841777085  5.1635687732342 17.2096648480125  C 5.17100371747212 17.17848791894  5.17472118959108 17.1551052221356  5.17472118959108 17.1395167575994  L 18 6.05611847233047  L 30.8252788104089 17.1395167575994  Z M 35.9776951672862 15.1169134840218  C 35.9925650557621 15.3273577552611  35.9405204460967 15.510522213562  35.82156133829 15.6664068589244  L 34.4386617100372 17.3967264224474  C 34.3197026022305 17.5370226032736  34.1635687732342 17.6227591582229  33.9702602230483 17.6539360872954  L 33.9033457249071 17.6539360872954  C 33.7100371747212 17.6539360872954  33.5539033457249 17.5993764614185  33.4349442379182 17.4902572096648  L 18 3.99844115354638  L 2.56505576208178 17.4902572096648  C 2.38661710037175 17.6149649259548  2.20817843866171 17.6695245518316  2.02973977695167 17.6539360872954  C 1.8364312267658 17.6227591582229  1.68029739776952 17.5370226032736  1.56133828996283 17.3967264224474  L 0.178438661710037 15.6664068589244  C 0.0594795539033457 15.510522213562  0.00743494423791827 15.3273577552611  0.0223048327137546 15.1169134840218  C 0.0371747211895912 14.9064692127825  0.118959107806691 14.7388932190179  0.267657992565056 14.614185502728  L 16.3048327137546 0.607950116913485  C 16.7806691449814 0.202650038971158  17.3457249070632 0  18 0  C 18.6542750929368 0  19.2193308550186 0.202650038971158  19.6951672862454 0.607950116913485  L 25.1375464684015 5.3780202650039  L 25.1375464684015 0.818394388152766  C 25.1375464684015 0.600155884645359  25.2044609665428 0.420888542478565  25.3382899628253 0.280592361652379  C 25.4721189591078 0.140296180826189  25.6431226765799 0.0701480904130947  25.8513011152416 0.0701480904130947  L 30.1338289962825 0.0701480904130947  C 30.3420074349442 0.0701480904130947  30.5130111524164 0.140296180826189  30.6468401486989 0.280592361652379  C 30.7806691449814 0.420888542478565  30.8475836431227 0.600155884645359  30.8475836431227 0.818394388152766  L 30.8475836431227 10.3585346843336  L 35.7323420074349 14.614185502728  C 35.8810408921933 14.7388932190179  35.9628252788104 14.9064692127825  35.9776951672862 15.1169134840218  Z " fill-rule="nonzero" fill="#ffffff" stroke="none" transform="matrix(1 0 0 1 18 49 )" />
  </g>
</svg>